<svg xmlns:x="http://ns.adobe.com/Extensibility/1.0/" xmlns:i="http://ns.adobe.com/AdobeIllustrator/10.0/" xmlns:graph="http://ns.adobe.com/Graphs/1.0/" xmlns="http://www.w3.org/2000/svg" xmlns:xlink="http://www.w3.org/1999/xlink" xmlns:a="http://ns.adobe.com/AdobeSVGViewerExtensions/3.0/" version="1.1" x="0px" y="0px" viewBox="0 0 100 100" enable-background="new 0 0 100 100" xml:space="preserve"><path d="M64.299,26.011H37.143v4.526h27.156V26.011z M64.299,45.926H37.143v4.527h27.156V45.926z M37.143,70.368h27.156v-4.526  H37.143V70.368z M74.711,44.403v41.808H15.867V13.79h43.994l6.66-3.208L68.242,7H13.605c-2.492,0-4.527,2.036-4.527,4.526v76.947  c0,2.487,2.035,4.526,4.527,4.526h63.367c2.488,0,4.527-2.039,4.527-4.526V30.352L74.711,44.403z M22.84,65.451l-2.561,2.561  l5.23,5.229l8.193-8.193l-2.561-2.56l-5.633,5.633L22.84,65.451z M23.744,34.141l3.246-3.247l3.246,3.246l2.561-2.56l-3.246-3.246  l3.246-3.247l-2.561-2.56l-3.246,3.246l-3.244-3.246l-2.561,2.56l3.246,3.247l-3.246,3.247L23.744,34.141z M31.143,42.554  l-5.633,5.633l-2.67-2.67l-2.561,2.56l5.23,5.231l8.193-8.194L31.143,42.554z"></path><polygon points="74.922,3 69.734,13.792 58.922,19 69.807,24.043 74.922,35 80.057,24.185 90.922,19 80.199,13.792 "></polygon></svg>