<svg xmlns="http://www.w3.org/2000/svg" xmlns:xlink="http://www.w3.org/1999/xlink" version="1.1" x="0px" y="0px" viewBox="0 0 100 100" enable-background="new 0 0 100 100" xml:space="preserve"><path d="M14,58.525c3.033,0,5.5-2.467,5.5-5.5c0-3.032-2.467-5.5-5.5-5.5s-5.5,2.467-5.5,5.5C8.5,56.059,10.967,58.525,14,58.525z   M14,48.526c2.481,0,4.5,2.019,4.5,4.5c0,2.482-2.019,4.5-4.5,4.5s-4.5-2.018-4.5-4.5C9.5,50.544,11.519,48.526,14,48.526z   M32,58.525c3.033,0,5.5-2.467,5.5-5.5c0-3.032-2.467-5.5-5.5-5.5s-5.5,2.467-5.5,5.5C26.5,56.059,28.967,58.525,32,58.525z   M32,48.526c2.481,0,4.5,2.019,4.5,4.5c0,2.482-2.019,4.5-4.5,4.5s-4.5-2.018-4.5-4.5C27.5,50.544,29.519,48.526,32,48.526z   M68,58.525c3.032,0,5.5-2.467,5.5-5.5c0-3.032-2.468-5.5-5.5-5.5s-5.5,2.467-5.5,5.5C62.5,56.059,64.968,58.525,68,58.525z   M68,48.526c2.481,0,4.5,2.019,4.5,4.5c0,2.482-2.019,4.5-4.5,4.5s-4.5-2.018-4.5-4.5C63.5,50.544,65.519,48.526,68,48.526z   M86,58.525c3.032,0,5.5-2.467,5.5-5.5c0-3.032-2.468-5.5-5.5-5.5s-5.5,2.467-5.5,5.5C80.5,56.059,82.968,58.525,86,58.525z   M86,48.526c2.481,0,4.5,2.019,4.5,4.5c0,2.482-2.019,4.5-4.5,4.5s-4.5-2.018-4.5-4.5C81.5,50.544,83.519,48.526,86,48.526z   M13,41.933H9v-2h4v-4h2v4h4v2h-4v4h-2V41.933z M31.5,41.433h-2v-1h2v-2h1v2h2v1h-2v2h-1V41.433z M91,41.933H81v-2h10V41.933z   M70.5,41.433h-5v-1h5V41.433z M49.944,44.586c1.715,0,2.71-1.463,2.71-4.114c0-2.482-0.947-3.946-2.578-3.946  c-1.583,0-2.723,1.427-2.723,4.054C47.377,43.159,48.421,44.586,49.944,44.586z M50.004,37.342c1.104,0,1.584,1.259,1.584,3.178  c0,1.991-0.516,3.25-1.584,3.25c-0.959,0-1.583-1.151-1.583-3.178C48.421,38.47,49.093,37.342,50.004,37.342z M95,33.026H5v30.5  h47.694l0.293,1.898l1.317-1.898h1.145l1.679,2.607l0.542,0.842l0.841-0.543l1.434-0.926l0.84-0.541l-0.541-0.84l-0.386-0.6H95  V33.026z M59.402,64.666l-1.434,0.926l-3.039-4.721l-1.148,1.654l0,0l-0.188,0.271l-1.069-6.939l6.247,3.604l-2.367,0.551  l1.619,2.514l0,0l0.644,1h0.001L59.402,64.666z M49.963,50.136c-1.656,0-3,1.343-3,3c0,1.656,1.344,3,3,3  c0.561,0,1.078-0.164,1.526-0.431l0.047,0.304l0.191,1.244c-0.544,0.236-1.135,0.383-1.765,0.383c-2.48,0-4.5-2.02-4.5-4.5  c0-2.482,2.02-4.5,4.5-4.5c2.482,0,4.5,2.019,4.5,4.5c0,0.848-0.251,1.627-0.664,2.301l-0.774-0.446l-0.511-0.294  c0.279-0.457,0.449-0.987,0.449-1.561C52.963,51.479,51.62,50.136,49.963,50.136z M94,62.525H59.213l-1.199-1.861l0.984-0.229  l2.468-0.574l-2.194-1.266l-4.601-2.654c0.494-0.824,0.792-1.777,0.792-2.805c0-3.033-2.467-5.5-5.5-5.5c-3.032,0-5.5,2.467-5.5,5.5  c0,3.032,2.467,5.5,5.5,5.5c0.679,0,1.321-0.139,1.922-0.363l0.655,4.252H6v-28.5h88V62.525z"></path></svg>