<svg xmlns="http://www.w3.org/2000/svg" xmlns:xlink="http://www.w3.org/1999/xlink" version="1.1" x="0px" y="0px" viewBox="0 0 48 48" enable-background="new 0 0 48 48" xml:space="preserve"><g><path fill="#000000" d="M44.611,45.875H4.389C2.521,45.875,1,44.354,1,42.486V24.264c0-0.767,0.264-1.519,0.742-2.117   c0.649-0.809,1.613-1.271,2.646-1.271h0.232l19.39,9.517l20.379-9.517h0.222c1.868,0,3.389,1.521,3.389,3.389v18.223   C48,44.354,46.479,45.875,44.611,45.875z M4.187,22.89c-0.346,0.051-0.66,0.229-0.884,0.507C3.105,23.645,3,23.944,3,24.264v18.223   c0,0.766,0.623,1.389,1.389,1.389h40.223c0.766,0,1.389-0.623,1.389-1.389V24.264c0-0.7-0.521-1.281-1.195-1.375l-20.815,9.72   L4.187,22.89z"></path></g><g><polygon fill="#000000" points="46,21.875 44,21.875 44,3.875 5,3.875 5,21.875 3,21.875 3,1.875 46,1.875  "></polygon></g><g><rect x="10.117" y="24.815" transform="matrix(0.5605 0.8281 -0.8281 0.5605 34.554 6.5376)" fill="#000000" width="2" height="22.022"></rect></g><g><rect x="26.852" y="34.826" transform="matrix(0.828 0.5607 -0.5607 0.828 26.5997 -15.0686)" fill="#000000" width="22.022" height="2"></rect></g><g><g><path d="M6.766,11.972c0.011,0.165,0.029,0.33,0.054,0.493l1.3-0.197c-0.019-0.126-0.033-0.255-0.042-0.383L6.766,11.972z"></path><path d="M6.819,12.69c-0.048,0-0.095-0.015-0.134-0.044c-0.049-0.035-0.081-0.089-0.09-0.148c-0.025-0.167-0.043-0.34-0.056-0.51    c-0.004-0.06,0.016-0.119,0.055-0.164c0.04-0.045,0.096-0.073,0.156-0.077l1.312-0.088c0.123,0,0.232,0.086,0.24,0.21    c0.008,0.122,0.021,0.244,0.04,0.364c0.009,0.059-0.006,0.119-0.041,0.168c-0.036,0.049-0.089,0.081-0.148,0.09l-1.301,0.197    C6.842,12.69,6.831,12.69,6.819,12.69z"></path></g><g><path d="M12.837,6.974l0.048-1.314c-0.165-0.006-0.331-0.005-0.495,0.003l0.061,1.314C12.578,6.97,12.708,6.969,12.837,6.974z"></path><path d="M12.451,7.201c-0.12,0-0.22-0.094-0.226-0.215l-0.062-1.313c-0.006-0.125,0.09-0.23,0.215-0.236    c0.172-0.008,0.344-0.01,0.514-0.003c0.061,0.002,0.117,0.027,0.157,0.071c0.041,0.044,0.063,0.103,0.061,0.162l-0.048,1.314    c-0.002,0.061-0.027,0.117-0.072,0.158c-0.043,0.04-0.099,0.062-0.162,0.06c-0.123-0.006-0.246-0.003-0.366,0.002    C12.458,7.201,12.454,7.201,12.451,7.201z"></path></g><g><path d="M8.092,7.824l1.017,0.834C9.19,8.559,9.276,8.462,9.365,8.37L8.422,7.455C8.307,7.573,8.196,7.697,8.092,7.824z"></path><path d="M9.108,8.884c-0.051,0-0.102-0.017-0.144-0.051L7.948,7.999C7.902,7.961,7.873,7.906,7.867,7.847    c-0.006-0.061,0.012-0.12,0.05-0.166C8.025,7.549,8.142,7.419,8.26,7.297c0.088-0.089,0.229-0.092,0.319-0.004l0.943,0.915    c0.09,0.087,0.092,0.229,0.005,0.319C9.443,8.615,9.36,8.708,9.283,8.802C9.238,8.856,9.174,8.884,9.108,8.884z"></path></g><g><path d="M16.874,7.407l-0.934,0.925c0.09,0.091,0.178,0.187,0.26,0.285l1.008-0.844C17.102,7.648,16.99,7.525,16.874,7.407z"></path><path d="M16.199,8.844c-0.064,0-0.128-0.027-0.173-0.08c-0.078-0.093-0.16-0.185-0.247-0.271    c-0.042-0.043-0.066-0.101-0.065-0.161c0-0.06,0.023-0.117,0.066-0.159l0.935-0.926c0.089-0.088,0.233-0.088,0.319,0.001    c0.121,0.122,0.236,0.249,0.346,0.38c0.08,0.096,0.068,0.238-0.027,0.318l-1.008,0.845C16.302,8.827,16.251,8.844,16.199,8.844z"></path></g><g><path d="M17.266,11.841l-0.001,0.007c-0.008,0.128-0.021,0.258-0.039,0.384l1.302,0.186c0.023-0.162,0.04-0.328,0.05-0.492    l0.001-0.023L17.266,11.841z"></path><path d="M18.528,12.645c-0.011,0-0.021,0-0.032-0.002l-1.302-0.187c-0.123-0.018-0.209-0.132-0.191-0.255    c0.017-0.121,0.029-0.244,0.037-0.367c0.007-0.12,0.107-0.219,0.227-0.219c0.003,0,0.006,0,0.01,0l1.313,0.062    c0.124,0.006,0.221,0.11,0.215,0.235c-0.011,0.197-0.028,0.37-0.053,0.538C18.735,12.563,18.639,12.645,18.528,12.645z"></path></g></g><g><g><path d="M32.565,15.221v-0.603c-0.7-0.11-1.344-0.427-1.934-0.95l0.769-0.934c0.43,0.375,0.818,0.615,1.165,0.719v-1.231    c-0.578-0.149-1.003-0.348-1.273-0.599c-0.27-0.25-0.405-0.611-0.405-1.082c0-0.471,0.155-0.859,0.463-1.165    c0.309-0.306,0.713-0.489,1.215-0.549V8.42h0.876v0.422c0.551,0.077,1.099,0.305,1.645,0.685l-0.678,0.975    c-0.347-0.247-0.669-0.413-0.967-0.496v1.19c0.595,0.154,1.034,0.36,1.318,0.619c0.284,0.259,0.426,0.625,0.426,1.099    c0,0.473-0.159,0.865-0.475,1.173c-0.317,0.309-0.739,0.494-1.268,0.554v0.578H32.565z M32.565,9.974    c-0.237,0.083-0.356,0.234-0.356,0.455s0.118,0.388,0.356,0.504V9.974z M33.862,12.981c0-0.116-0.03-0.212-0.091-0.289    c-0.061-0.077-0.171-0.149-0.331-0.215v1.017C33.722,13.406,33.862,13.235,33.862,12.981z"></path><path d="M33.571,15.352h-1.137v-0.624c-0.681-0.13-1.315-0.453-1.89-0.963l-0.094-0.084l0.934-1.134l0.102,0.088    c0.345,0.301,0.663,0.513,0.948,0.632v-0.945c-0.549-0.151-0.963-0.354-1.231-0.604c-0.296-0.274-0.446-0.671-0.446-1.178    c0-0.505,0.169-0.928,0.502-1.259c0.304-0.301,0.699-0.492,1.176-0.569V8.289h1.137V8.73c0.531,0.094,1.065,0.325,1.589,0.689    l0.107,0.075l-0.827,1.189l-0.107-0.076c-0.271-0.192-0.527-0.334-0.762-0.422v0.909c0.563,0.156,0.992,0.366,1.275,0.624    c0.311,0.283,0.469,0.686,0.469,1.195c0,0.508-0.174,0.935-0.516,1.267c-0.312,0.306-0.726,0.498-1.229,0.575V15.352z     M32.696,15.09h0.613v-0.563l0.116-0.014c0.496-0.057,0.897-0.231,1.192-0.519c0.289-0.281,0.436-0.645,0.436-1.079    c0-0.439-0.125-0.768-0.383-1.002c-0.268-0.244-0.693-0.442-1.264-0.591l-0.098-0.024V9.835l0.166,0.046    c0.276,0.076,0.579,0.224,0.899,0.439l0.528-0.759c-0.491-0.323-0.989-0.521-1.481-0.591L33.31,8.955V8.551h-0.613v0.391    l-0.115,0.014c-0.477,0.058-0.849,0.225-1.139,0.512c-0.285,0.283-0.424,0.635-0.424,1.073c0,0.432,0.122,0.763,0.362,0.986    c0.253,0.234,0.662,0.426,1.217,0.567l0.099,0.025v1.509l-0.169-0.051c-0.334-0.101-0.707-0.322-1.11-0.658l-0.604,0.732    c0.542,0.455,1.138,0.736,1.772,0.837l0.11,0.018V15.09z M33.31,13.672v-1.39l0.181,0.074c0.184,0.076,0.309,0.16,0.384,0.255    c0.079,0.101,0.119,0.226,0.119,0.37c0,0.217-0.089,0.503-0.514,0.638L33.31,13.672z M33.571,12.689v0.603    c0.139-0.092,0.16-0.21,0.16-0.311c0-0.086-0.021-0.154-0.062-0.208C33.651,12.751,33.622,12.723,33.571,12.689z M32.696,11.141    l-0.188-0.092c-0.355-0.172-0.43-0.433-0.43-0.621c0-0.192,0.077-0.449,0.443-0.577l0.174-0.061V11.141z"></path></g></g><g><polygon points="29.328,15.358 25.601,15.358 25.601,8.282 29.328,8.282 29.328,10.282 27.601,10.282 27.601,13.358 29.328,13.358     "></polygon></g><g><polygon points="40.533,15.358 36.805,15.358 36.805,13.358 38.533,13.358 38.533,10.282 36.805,10.282 36.805,8.282 40.533,8.282     "></polygon></g><g><path d="M13.5,16.408c-0.013-0.147-0.095-1.519,0.93-4.426c0.028-0.201,0.121-1.098-0.35-1.686   c-0.285-0.355-0.756-0.553-1.401-0.586c-0.642,0.031-1.112,0.223-1.4,0.57c-0.545,0.66-0.359,1.729-0.357,1.739   c1.02,2.852,0.938,4.239,0.925,4.388l-1.287-0.111c0.001-0.006,0.071-1.256-0.88-3.938c-0.039-0.162-0.333-1.765,0.604-2.899   c0.54-0.654,1.346-1.004,2.397-1.041l0,0l0,0c0.062-0.002,0.125-0.003,0.189-0.003v0.014c0.975,0.076,1.722,0.436,2.225,1.069   c0.898,1.133,0.61,2.7,0.598,2.767c-0.978,2.776-0.906,4.025-0.905,4.038L13.5,16.408z"></path></g><g><path d="M14.429,18.061h-3.512c-0.356,0-0.646-0.289-0.646-0.646s0.289-0.646,0.646-0.646h3.512c0.356,0,0.646,0.289,0.646,0.646   S14.785,18.061,14.429,18.061z"></path></g><g><path d="M14.429,16.998h-3.512c-0.356,0-0.646-0.289-0.646-0.646s0.289-0.646,0.646-0.646h3.512c0.356,0,0.646,0.289,0.646,0.646   S14.785,16.998,14.429,16.998z"></path></g><g><path d="M12.874,18.955h-0.403c-0.356,0-0.646-0.289-0.646-0.646s0.289-0.646,0.646-0.646h0.403c0.356,0,0.646,0.289,0.646,0.646   S13.23,18.955,12.874,18.955z"></path></g><g><path d="M12.673,13.266c-0.356,0-0.646-0.289-0.646-0.646v-0.403c0-0.356,0.289-0.646,0.646-0.646s0.646,0.289,0.646,0.646v0.403   C13.318,12.977,13.029,13.266,12.673,13.266z"></path></g><g><rect x="2.188" y="17.299" transform="matrix(0.9599 0.2803 -0.2803 0.9599 5.7894 -0.0839)" fill="#000000" width="2" height="5.804"></rect></g><g><rect x="42.91" y="19.201" transform="matrix(0.2798 0.9601 -0.9601 0.2798 52.3878 -29.4334)" fill="#000000" width="5.804" height="2"></rect></g></svg>