<svg xmlns="http://www.w3.org/2000/svg" xmlns:xlink="http://www.w3.org/1999/xlink" version="1.1" x="0px" y="0px" viewBox="0 0 100 100" enable-background="new 0 0 100 100" xml:space="preserve"><g><rect x="18.335" y="65.82" fill="#000000" width="12.98" height="20.21"></rect></g><g><rect x="35.185" y="58.57" fill="#000000" width="12.99" height="27.46"></rect></g><g><rect x="51.655" y="47.9" fill="#000000" width="12.979" height="38.13"></rect></g><g><rect x="68.506" y="36.22" fill="#000000" width="12.989" height="49.811"></rect></g><path fill="#000000" d="M77.506,16.22v8.66c0,1.38-1.121,2.5-2.5,2.5c-1.381,0-2.5-1.12-2.5-2.5v-2  c-24.311,26.58-51.21,35.34-52.42,35.72c-0.25,0.08-0.5,0.12-0.75,0.12c-1.06,0-2.05-0.68-2.39-1.75c-0.41-1.31,0.31-2.72,1.63-3.14  c0.29-0.09,27.33-8.93,50.95-35.11h-3.189c-1.381,0-2.5-1.12-2.5-2.5s1.119-2.5,2.5-2.5h8.67c0.119,0,0.229,0.01,0.35,0.03  c0.05,0,0.1,0.01,0.14,0.02C76.646,14,77.506,15.01,77.506,16.22z"></path></svg>