<svg xmlns="http://www.w3.org/2000/svg" xmlns:xlink="http://www.w3.org/1999/xlink" version="1.1" x="0px" y="0px" viewBox="0 0 200 150" enable-background="new 0 0 200 150" xml:space="preserve"><path d="M0,0v60v90h200V60V0H0z M196,146H4V64h192V146z M196,60H4V4h192V60z"></path><path d="M82.623,29.035c-0.075-0.657-0.123-1.323-0.123-2c0-0.677,0.048-1.343,0.123-2H65.967c0.075,0.657,0.123,1.323,0.123,2  c0,0.677-0.048,1.343-0.123,2H82.623z"></path><path d="M133.713,29.035c-0.075-0.657-0.123-1.323-0.123-2c0-0.677,0.048-1.343,0.123-2h-16.336c0.075,0.657,0.123,1.323,0.123,2  c0,0.677-0.048,1.343-0.123,2H133.713z"></path><path d="M48.91,40.945c7.682,0,13.91-6.228,13.91-13.91c0-7.682-6.228-13.91-13.91-13.91S35,19.353,35,27.035  C35,34.718,41.228,40.945,48.91,40.945z M48.91,16.125c6.016,0,10.91,4.894,10.91,10.91s-4.894,10.91-10.91,10.91  S38,33.051,38,27.035S42.894,16.125,48.91,16.125z"></path><path d="M100,40.945c7.682,0,13.91-6.228,13.91-13.91c0-7.682-6.228-13.91-13.91-13.91s-13.91,6.228-13.91,13.91  C86.09,34.718,92.318,40.945,100,40.945z M100,16.125c6.016,0,10.91,4.894,10.91,10.91s-4.894,10.91-10.91,10.91  s-10.91-4.894-10.91-10.91S93.984,16.125,100,16.125z"></path><path d="M151.09,40.945c7.682,0,13.91-6.228,13.91-13.91c0-7.682-6.228-13.91-13.91-13.91c-7.682,0-13.91,6.228-13.91,13.91  C137.18,34.718,143.407,40.945,151.09,40.945z M151.09,16.125c6.016,0,10.91,4.894,10.91,10.91s-4.894,10.91-10.91,10.91  s-10.91-4.894-10.91-10.91S145.074,16.125,151.09,16.125z"></path><path d="M153.556,31.464c0.713-0.547,1.069-1.312,1.069-2.295c0-0.675-0.212-1.212-0.636-1.61s-1.048-0.649-1.872-0.751v-0.042  c0.699-0.168,1.241-0.475,1.628-0.922c0.387-0.447,0.58-0.99,0.58-1.628c0-0.764-0.307-1.36-0.918-1.788  c-0.613-0.428-1.448-0.643-2.505-0.643c-1.29,0-2.401,0.335-3.332,1.006l0.999,1.488c0.424-0.275,0.809-0.468,1.156-0.58  s0.689-0.168,1.024-0.168c0.969,0,1.453,0.387,1.453,1.16c0,0.503-0.183,0.858-0.549,1.065s-0.944,0.311-1.736,0.311h-0.789v1.656  h0.775c0.857,0,1.481,0.1,1.872,0.3c0.391,0.2,0.587,0.54,0.587,1.02c0,0.536-0.17,0.924-0.51,1.167  c-0.34,0.242-0.866,0.363-1.579,0.363c-0.466,0-0.936-0.063-1.411-0.189c-0.475-0.126-0.911-0.289-1.306-0.489v1.837  c0.857,0.368,1.84,0.552,2.948,0.552C151.826,32.285,152.843,32.012,153.556,31.464z"></path><rect x="36.987" y="46.875" width="23.846" height="4"></rect><rect x="88.077" y="46.875" width="23.846" height="4"></rect><rect x="139.167" y="46.875" width="23.846" height="4"></rect><rect x="35" y="115" width="130" height="4"></rect><rect x="35" y="105" width="130" height="4"></rect><rect x="35" y="95" width="130" height="4"></rect><rect x="35" y="85" width="70" height="4"></rect><path d="M98.74,23.888c0.378-0.184,0.767-0.276,1.168-0.276c0.382,0,0.688,0.102,0.917,0.304c0.229,0.203,0.343,0.512,0.343,0.928  c0,0.278-0.052,0.547-0.156,0.807c-0.104,0.26-0.274,0.542-0.51,0.846s-0.739,0.851-1.508,1.639l-2.598,2.627v1.522h7.236v-1.841  h-4.51v-0.099l1.331-1.253c0.887-0.812,1.507-1.437,1.859-1.876c0.352-0.439,0.611-0.867,0.779-1.285  c0.168-0.418,0.251-0.865,0.251-1.342c0-0.547-0.137-1.034-0.411-1.458c-0.274-0.425-0.658-0.755-1.154-0.991  c-0.496-0.236-1.067-0.354-1.713-0.354c-0.491,0-0.935,0.048-1.331,0.145c-0.397,0.097-0.762,0.235-1.097,0.414  c-0.335,0.179-0.758,0.486-1.267,0.92l1.189,1.409C97.968,24.334,98.362,24.072,98.74,23.888z"></path><path d="M47.277,24.845c0.144-0.115,0.4-0.357,0.768-0.725l-0.036,1.092l-0.022,0.998v6.076h2.219v-10.5h-1.824L45,24.478  l1.07,1.336L47.277,24.845z"></path></svg>