<svg xmlns="http://www.w3.org/2000/svg" xmlns:xlink="http://www.w3.org/1999/xlink" version="1.1" x="0px" y="0px" viewBox="0 0 90 90" enable-background="new 0 0 90 90" xml:space="preserve"><path fill="#000000" d="M69.1,45.3c0,3-0.5,5.8-1.5,8.4l14.6,6.1c1.8-4.6,2.7-9.5,2.7-14.6C84.9,23.4,67.4,5.6,45.7,5v15.8  C58.7,21.4,69.1,32.1,69.1,45.3z"></path><path fill="#000000" d="M44.5,69.8c-1.8,0-3.6-0.2-5.3-0.6l-4.1,15.2c3.1,0.7,6.2,1.1,9.4,1.1c15.9,0,30.2-9.2,36.7-23.6l-14.6-6.1  C62.7,64.1,54.3,69.8,44.5,69.8z"></path><path fill="#000000" d="M21.9,54.8L7.1,60.3c4.6,11.4,14.1,20.1,25.8,23.6L37,68.7C30.2,66.5,24.6,61.4,21.9,54.8z"></path><path fill="#000000" d="M21.8,36L7.5,29.3c-2.2,5.1-3.3,10.4-3.3,16c0,4.4,0.7,8.7,2.1,12.8l14.8-5.5c-0.7-2.3-1.1-4.8-1.1-7.4  C20,42,20.6,38.8,21.8,36z"></path><path fill="#000000" d="M30.9,24.8l-8.1-13.6c-6.2,3.9-11.1,9.4-14.4,15.9l14.3,6.7C24.7,30.2,27.5,27.1,30.9,24.8z"></path><path fill="#000000" d="M43.4,5c-6.5,0.2-12.9,1.9-18.6,5.1l8.1,13.6c3.1-1.7,6.7-2.7,10.4-2.9V5z"></path></svg>