<svg xmlns:dc="http://purl.org/dc/elements/1.1/" xmlns:cc="http://creativecommons.org/ns#" xmlns:rdf="http://www.w3.org/1999/02/22-rdf-syntax-ns#" xmlns:svg="http://www.w3.org/2000/svg" xmlns="http://www.w3.org/2000/svg" version="1.1" viewBox="0 0 100.00001 100" xml:space="preserve" x="0px" y="0px"><path d="m 51.15625,5 c -0.127751,-0.0015 -0.255764,0.016375 -0.375,0.0625 C 50.7495,5.0751 50.71786,5.10862 50.6875,5.125 L 5.5625,28.65625 c -0.4880342,0.25452 -0.7231801,0.9497 -0.46875,1.4375 l 11.8125,22.5625 c 0.25443,0.48798 0.91845,0.69256 1.40625,0.4375 l 45.125,-23.5625 c 0.488016,-0.25434 0.72318,-0.918269 0.46875,-1.40625 L 52.125,5.5625 C 51.946017,5.2194649 51.539502,5.0045056 51.15625,5 z M 50.75,7.46875 l 4.34375,8.3125 C 50.50103,18.176511 44.834255,16.404842 42.4375,11.8125 L 50.75,7.46875 z M 60.21875,9.1875 C 60.142572,9.1940475 60.072504,9.22624 60,9.25 59.95142,9.2644 59.88947,9.28856 59.84375,9.3125 L 56.8125,10.875 c 0.32679,0.61974 0.644569,1.25382 0.96875,1.875 l 2.09375,-1.09375 4.34375,8.3125 c -0.738828,0.38556 -1.505017,0.66897 -2.28125,0.84375 0.800731,1.54584 1.622604,3.086 2.4375,4.625 0.585234,-0.53334 1.233756,-1.02267 1.96875,-1.40625 l 4.34375,8.3125 -8.3125,4.34375 C 61.672496,35.341819 61.33221,33.921281 61.3125,32.5 c -3.713365,1.981441 -7.426739,3.92344 -11.15625,5.875 -0.520525,0.772741 -1.249854,1.45125 -2.0625,1.96875 l 0.75,1.4375 c 0.173574,0.33246 0.02025,0.73273 -0.3125,0.90625 -0.332622,0.1737 -0.732874,0.05175 -0.90625,-0.28125 l -0.75,-1.4375 c -0.74745,0.311941 -1.517958,0.50083 -2.25,0.53125 -0.152569,0.0054 -0.290548,0.0054 -0.4375,0 -3.753451,1.953 -7.495541,3.892369 -11.25,5.84375 1.138536,0.82512 2.086234,1.91818 2.78125,3.25 l -8.3125,4.34375 -1.9375,-3.71875 c -0.620568,0.324361 -1.223433,0.6751 -1.84375,1 l 2.40625,4.625 c 0.254412,0.48798 0.94961,0.69256 1.4375,0.4375 L 72.59375,33.75 c 0.487963,-0.25452 0.691912,-0.94952 0.4375,-1.4375 L 61.25,9.75 C 61.090916,9.4450799 60.776458,9.23052 60.4375,9.1875 c -0.07626,-0.00963 -0.142572,-0.00655 -0.21875,0 z M 29.75,19.65625 C 30.053138,19.56823 30.379276,19.70876 30.53125,20 L 31.25,21.4375 c 0.699211,-0.29916 1.409604,-0.50886 2.0625,-0.5625 0.611172,-0.045 1.24426,0.06896 1.84375,0.3125 0.466902,0.17946 0.844132,0.38733 1.1875,0.65625 0.34353,0.2691 0.596946,0.54999 0.75,0.84375 0.170082,0.32598 0.208028,0.66909 0.09375,1.03125 -0.113922,0.36216 -0.348398,0.63556 -0.6875,0.8125 -0.639162,0.33318 -1.231638,0.21792 -1.78125,-0.375 -0.640279,-0.70272 -1.41389,-0.97324 -2.375,-0.8125 -0.02088,0.0072 -0.0415,-0.0036 -0.0625,0 l 2.09375,4.0625 0.0625,0 c 0.924192,-0.19908 1.675368,-0.33911 2.25,-0.40625 0.574489,-0.06768 1.1603,-0.02314 1.71875,0.125 0.5913,0.14796 1.114896,0.42784 1.59375,0.8125 0.478512,0.385201 0.877936,0.84386 1.1875,1.4375 0.388026,0.74376 0.572958,1.54412 0.5625,2.375 -0.01026,0.8316 -0.255142,1.641789 -0.71875,2.40625 -0.522738,0.79488 -1.263085,1.471339 -2.09375,2 l 0.75,1.4375 c 0.173538,0.33264 0.05144,0.73273 -0.28125,0.90625 -0.332658,0.173701 -0.732856,0.05175 -0.90625,-0.28125 l -0.75,-1.4375 c -0.747414,0.31194 -1.517976,0.50101 -2.25,0.53125 -0.713574,0.02358 -1.374462,-0.07245 -1.96875,-0.28125 -0.593964,-0.20862 -1.087962,-0.49851 -1.5,-0.84375 C 31.619211,35.842439 31.283666,35.48676 31.0625,35.0625 30.899258,34.74948 30.886596,34.37872 31,34 c 0.113598,-0.3789 0.353494,-0.65331 0.71875,-0.84375 0.293455,-0.153 0.569952,-0.21936 0.84375,-0.1875 0.273654,0.03132 0.511966,0.168 0.71875,0.375 0.45513,0.443161 0.815199,0.75311 1.09375,0.96875 0.27819,0.21564 0.613486,0.37155 1,0.46875 0.386766,0.09756 0.811254,0.13511 1.3125,0.03125 0,0 0.02891,0.0018 0.03125,0 l -2.375,-4.5625 c -0.992808,0.21222 -1.887647,0.30332 -2.625,0.3125 -0.741906,0.009 -1.411242,-0.17395 -2.0625,-0.53125 C 29.005153,29.67359 28.449064,29.079331 28,28.21875 c -0.585072,-1.12194 -0.714786,-2.222779 -0.375,-3.3125 0.35181,-1.1187 1.300079,-2.11889 2.4375,-2.84375 l -0.75,-1.4375 c -0.173647,-0.332821 -0.05141,-0.73273 0.28125,-0.90625 0.04172,-0.02124 0.112874,-0.05008 0.15625,-0.0625 z m 27.46875,0.1875 4.34375,8.3125 L 53.25,32.5 C 50.853065,27.907838 52.626607,22.240811 57.21875,19.84375 z m 16.125,1 c -0.574057,-0.009 -1.125566,0.21874 -1.53125,0.625 -0.40572,0.40608 -0.665196,0.98848 -0.65625,1.5625 0.0088,0.562861 0.252276,1.10796 0.65625,1.5 0.403956,0.39204 0.968371,0.63292 1.53125,0.625 l 6,0 0,39.03125 -3.375,-3.40625 a 2.1519649,2.1519649 0 0 0 -1.5625,-0.65625 2.1519649,2.1519649 0 0 0 -1.5,3.6875 l 6.6875,6.75 c 1.019754,1.02726 2.760793,1.02618 3.78125,0 l 6.71875,-6.75 a 2.1544943,2.1544943 0 1 0 -3.0625,-3.03125 l -3.375,3.40625 0,-41.15625 c 1.44e-4,-0.0099 0,-0.0213 0,-0.03125 0,-0.0099 1.44e-4,-0.02131 0,-0.03125 -0.004,-0.280707 -0.07678,-0.554481 -0.1875,-0.8125 -0.02376,-0.0568 -0.06532,-0.101641 -0.09375,-0.15625 -0.03638,-0.06864 -0.05028,-0.154408 -0.09375,-0.21875 -0.0332,-0.04954 -0.08779,-0.07841 -0.125,-0.125 -0.04758,-0.05923 -0.07121,-0.13377 -0.125,-0.1875 -0.006,-0.006 -0.02514,0.006 -0.03125,0 C 82.797608,21.26922 82.576177,21.105975 82.3125,21 82.046447,20.892315 81.755742,20.83925 81.46875,20.84375 l -8.125,0 z M 31.0625,23.9375 c -0.429246,0.2871 -0.772098,0.88932 -0.9375,1.3125 -0.167094,0.4275 -0.126098,0.92749 0.15625,1.46875 0.268704,0.51534 0.638006,0.82302 1.0625,0.9375 0.421434,0.11394 0.96496,0.11945 1.65625,0.03125 l -1.9375,-3.75 z m -15.28125,1.78125 c 2.396899,4.592341 0.623502,10.259369 -3.96875,12.65625 l -4.34375,-8.3125 8.3125,-4.34375 z m 21.0625,4.125 c -0.324565,0.0022 -0.6674,0.02445 -1.0625,0.09375 l -0.0625,0.03125 2.25,4.28125 C 37.98639,34.241 37.98396,34.23207 38,34.21875 c 0.59022,-0.47412 0.973818,-0.97768 1.125,-1.5625 0.15093,-0.58464 0.08817,-1.15902 -0.1875,-1.6875 -0.29592,-0.567181 -0.70827,-0.90291 -1.21875,-1.03125 -0.255159,-0.06372 -0.550435,-0.09596 -0.875,-0.09375 z M 18.0625,41.375 c 3.447276,-0.06844 6.827452,1.766364 8.53125,5.03125 L 18.28125,50.75 13.9375,42.4375 c 0.574146,-0.29934 1.150978,-0.54703 1.75,-0.71875 0.78624,-0.225315 1.579475,-0.327957 2.375,-0.34375 z m 1.21875,14.5 c -0.562861,0.009 -1.108032,0.25233 -1.5,0.65625 -0.392166,0.404101 -0.633064,0.96839 -0.625,1.53125 l -0.0625,6.15625 -3.40625,-3.4375 A 2.1519649,2.1519649 0 0 0 12.125,60.125 a 2.1519649,2.1519649 0 0 0 -1.5,3.6875 l 6.6875,6.75 c 1.019754,1.02726 2.760794,1.02618 3.78125,0 l 6.71875,-6.75 A 2.1544943,2.1544943 0 1 0 24.75,60.78125 l -3.34375,3.40625 0.0625,-6.125 c 0.009,-0.5742 -0.218866,-1.125529 -0.625,-1.53125 C 20.437598,56.12553 19.855234,55.866 19.28125,55.875 z m -0.0625,17.53125 c -5.964677,0 -10.8125,4.816573 -10.8125,10.78125 0,5.964677 4.847823,10.8125 10.8125,10.8125 5.964677,0 10.8125,-4.847823 10.8125,-10.8125 0,-5.964677 -4.847823,-10.78125 -10.8125,-10.78125 z m 51.65625,0 c -1.59552,0 -2.875,1.27948 -2.875,2.875 L 68,92.125 C 68,93.72052 69.27948,95 70.875,95 l 21.25,0 C 93.72052,95 95,93.72052 95,92.125 l 0,-15.84375 c 0,-1.59552 -1.27948,-2.875 -2.875,-2.875 l -21.25,0 z" transform="translate(0,-5e-6)" style="text-indent:0;text-transform:none;direction:ltr;block-progression:tb;baseline-shift:baseline;color:#000000;enable-background:accumulate;" fill="#000000" fill-opacity="1" stroke="none" marker="none" visibility="visible" display="inline" overflow="visible"></path></svg>