<svg xmlns="http://www.w3.org/2000/svg" xmlns:xlink="http://www.w3.org/1999/xlink" version="1.1" x="0px" y="0px" viewBox="0 0 100 100" enable-background="new 0 0 100 100" xml:space="preserve"><g><rect x="-192" width="185" height="99"></rect><rect y="-36" width="100" height="30"></rect><text transform="matrix(1 0 0 1 66 -19.5)" fill="#000000" font-family="'Helvetica'" font-size="2.4">http://thenounproject.com</text><text transform="matrix(1 0 0 1 7.166 -24.5)"><tspan x="0" y="0" fill="#000000" font-family="'Helvetica-Bold'" font-size="6.1578">The Noun Project</tspan><tspan x="1.12" y="4.8" fill="#000000" font-family="'Helvetica-Bold'" font-size="4">Icon Template</tspan></text><text transform="matrix(1 0 0 1 -178.5 10.5)" fill="#000000" font-family="'Helvetica-Bold'" font-size="6.1578">Reminders</text><line fill="#000000" stroke="#FFFFFF" stroke-miterlimit="10" x1="8" y1="-14.5" x2="18" y2="-14.5"></line><line fill="#000000" stroke="#FFFFFF" stroke-miterlimit="10" x1="-179" y1="16.5" x2="-162" y2="16.5"></line><g><g><g><rect x="-170.802" y="31.318" fill="#000000" width="8.721" height="8.642"></rect><path fill="#000000" d="M-164.455,42.312h4.747v-4.703h-4.747V42.312z M-159.266,42.749h-5.63V37.17h5.63V42.749      L-159.266,42.749z M-166.221,44.062h8.279v-8.203h-8.279V44.062L-166.221,44.062z M-157.5,44.5h-9.163v-9.079h9.163V44.5      L-157.5,44.5z"></path><polygon fill="#000000" points="-166.149,44.133 -166.292,43.991 -158.013,35.787 -157.871,35.929     "></polygon></g></g></g><rect x="-179" y="58" fill="none" width="35" height="32.5"></rect><text transform="matrix(1 0 0 1 -179 60.1572)"><tspan x="0" y="0" fill="#000000" font-family="'Helvetica-Bold'" font-size="3">Strokes</tspan><tspan x="0" y="5" fill="#000000" font-family="'Helvetica'" font-size="2.4">Try to keep strokes at 4px</tspan><tspan x="0" y="10" fill="#000000" font-family="'Helvetica'" font-size="2.4">Minimum stroke weight is 2px</tspan><tspan x="0" y="14.5" fill="#000000" font-family="'Helvetica'" font-size="2.4">For thicker strokes use even </tspan><tspan x="0" y="17.5" fill="#000000" font-family="'Helvetica'" font-size="2.4">numbers: 6px, 8px etc.</tspan><tspan x="0" y="22" fill="#000000" font-family="'Helvetica-Bold'" font-size="2.4">Remember to expand strokes </tspan><tspan x="0" y="25" fill="#000000" font-family="'Helvetica-Bold'" font-size="2.4">before saving as an SVG </tspan></text><rect x="-136.5" y="58" fill="none" width="35" height="32.5"></rect><text transform="matrix(1 0 0 1 -136.5 60.1572)"><tspan x="0" y="0" fill="#000000" font-family="'Helvetica-Bold'" font-size="3">Size</tspan><tspan x="0" y="5" fill="#000000" font-family="'Helvetica'" font-size="2.4">Cannot be wider or taller than </tspan><tspan x="0" y="8.5" fill="#000000" font-family="'Helvetica'" font-size="2.4">100px (artboard size)</tspan><tspan x="0" y="13.5" fill="#000000" font-family="'Helvetica'" font-size="2.4">Scale your icon to fill as much of </tspan><tspan x="0" y="16.5" fill="#000000" font-family="'Helvetica'" font-size="2.4">the artboard as possible</tspan></text><rect x="-94" y="58" fill="none" width="35" height="32.5"></rect><text transform="matrix(1 0 0 1 -94 60.1572)"><tspan x="0" y="0" fill="#000000" font-family="'Helvetica-Bold'" font-size="3">Ungroup</tspan><tspan x="0" y="5" fill="#000000" font-family="'Helvetica'" font-size="2.4">If your design has more than one </tspan><tspan x="0" y="8" fill="#000000" font-family="'Helvetica'" font-size="2.4">shape, make sure to ungroup</tspan></text><rect x="-50" y="58" fill="none" width="35" height="32.5"></rect><text transform="matrix(1 0 0 1 -50 60.1572)"><tspan x="0" y="0" fill="#000000" font-family="'Helvetica-Bold'" font-size="3">Save as</tspan><tspan x="0" y="5" fill="#000000" font-family="'Helvetica'" font-size="2.4">Save as .SVG and make sure </tspan><tspan x="0" y="8" fill="#000000" font-family="'Helvetica'" font-size="2.4">“Use Artboards” is checked</tspan></text><text transform="matrix(1.0074 0 0 1 -125.542 30.5933)" fill="#000000" font-family="'Helvetica'" font-size="2.5731">100px</text><text transform="matrix(1.0074 0 0 1 -41 39)" fill="#000000" font-family="'Helvetica-Bold'" font-size="5.1462">.SVG</text><rect x="-126.514" y="34.815" fill="#000000" width="10.261" height="10.185"></rect><rect x="-126.477" y="31.766" fill="#000000" width="0.522" height="2.337"></rect><rect x="-116.812" y="31.766" fill="#000000" width="0.523" height="2.337"></rect><rect x="-127" y="32.337" fill="#000000" width="11.233" height="0.572"></rect><g><rect x="-83.805" y="33.844" fill="#000000" width="10.305" height="10.156"></rect><rect x="-76.809" y="28.707" fill="#000000" width="3.308" height="3.261"></rect></g><rect x="-178.5" y="22.5" fill="#000000" stroke="#FFFFFF" stroke-miterlimit="10" width="30" height="30"></rect><rect x="-136.5" y="22.5" fill="#000000" stroke="#FFFFFF" stroke-miterlimit="10" width="30" height="30"></rect><rect x="-93.5" y="22.5" fill="#000000" stroke="#FFFFFF" stroke-miterlimit="10" width="30" height="30"></rect><rect x="-49.5" y="22.5" fill="#000000" stroke="#FFFFFF" stroke-miterlimit="10" width="30" height="30"></rect></g><g><path fill="#000000" d="M43.619,5h26.9c3.502,0,6.367,2.867,6.367,6.375v12.728c0,3.508-2.865,6.377-6.367,6.377h-4.146v8.206   l-8.205-8.206H43.619c-3.508,0-6.371-2.869-6.371-6.377V11.375C37.248,7.867,40.115,5,43.619,5z"></path><path fill="#000000" d="M81.287,48.302c-5.076,0-9.195-4.119-9.195-9.194c0-5.083,4.119-9.201,9.195-9.201   c5.084,0,9.201,4.119,9.201,9.201C90.488,44.183,86.373,48.302,81.287,48.302z"></path><path fill="#000000" d="M65.621,80.654c0-2.232,0-14.704,0-18.026c0-6.498,4.537-11.78,10.07-11.78c2.748,0,8.123,0,10.797,0   c5.533,0,10.471,5.284,10.471,11.78c0,3.322,0,15.796,0,18.026H65.621z"></path><path fill="#000000" d="M62.684,52.979L39.705,52.92l-2.228,5.416c-2.434-2.243-5.505-3.593-8.729-3.593   c-3.556,0-10.703,0-14.357,0C7.035,54.743,1,61.769,1,70.408c0,4.419,0,21.002,0,23.973h41.672c0-1.364,0-5.608,0-10.223   l7.181,0.018L62.684,52.979z M51.322,75.522l-8.65-0.022c0-0.239,0-0.476,0-0.705l8.939,0.022L51.322,75.522z M52.467,72.739   l-9.794-0.027c0-0.244,0-0.48,0-0.705l10.085,0.027L52.467,72.739z M53.611,69.954l-10.95-0.027   c-0.007-0.237-0.019-0.474-0.035-0.706l11.276,0.03L53.611,69.954z M54.756,67.171l-12.405-0.032   c-0.047-0.237-0.098-0.474-0.155-0.706l12.851,0.033L54.756,67.171z M55.902,64.387l-14.359-0.038   c-0.092-0.238-0.189-0.474-0.292-0.706l14.941,0.038L55.902,64.387z M57.047,61.603l-16.904-0.045   c-0.151-0.24-0.309-0.476-0.471-0.707l17.666,0.047L57.047,61.603z M40.824,55.281l18.803,0.048l-0.291,0.705l-18.802-0.049   L40.824,55.281z M39.679,58.064l18.803,0.049l-0.291,0.704L39.389,58.77L39.679,58.064z M42.672,77.58l7.794,0.022l-0.289,0.703   l-7.505-0.02C42.672,78.049,42.672,77.814,42.672,77.58z"></path><path fill="#000000" d="M21.956,51.531c6.763,0,12.236-5.478,12.236-12.227c0-6.758-5.476-12.234-12.236-12.234   c-6.751,0-12.227,5.476-12.227,12.234C9.729,46.054,15.205,51.531,21.956,51.531z"></path></g></svg>