<?xml version="1.0" encoding="utf-8"?><!DOCTYPE svg PUBLIC "-//W3C//DTD SVG 1.1//EN" "http://www.w3.org/Graphics/SVG/1.1/DTD/svg11.dtd"><svg version="1.1" xmlns="http://www.w3.org/2000/svg" xmlns:xlink="http://www.w3.org/1999/xlink" x="0px" y="0px" viewBox="0 0 100 90.913" enable-background="new 0 0 100 90.913" xml:space="preserve"><g><polygon fill="none" points="48.999,2.271 41.929,2.271 45.464,7.954 	"></polygon><path fill="#010101" d="M80.684,15.342c0,2.822,2.5,5.112,5.596,5.112h8.125c3.096,0,5.596-2.29,5.596-5.112
		c0-2.827-2.5-5.117-5.596-5.117h-8.125C83.184,10.225,80.684,12.515,80.684,15.342z"></path><path fill="#010101" d="M94.404,72.729h-8.125c-3.096,0-5.596,2.285-5.596,5.107s2.5,5.117,5.596,5.117h8.125
		c3.096,0,5.596-2.295,5.596-5.117S97.5,72.729,94.404,72.729z"></path><path fill="none" d="M74.824,59.058l0.869-2.1l3.861,1.599c1.27-3.397,2.041-7.037,2.219-10.832h-9.049v-4.541h8.97
		c-0.272-3.464-1.034-6.789-2.222-9.906l-3.867,1.601l-0.869-2.1l3.857-1.597c-1.549-3.394-3.604-6.509-6.083-9.235l-6.397,6.398
		L62.9,25.132l6.339-6.343c-2.571-2.194-5.455-4.029-8.578-5.431l-1.604,3.864l-2.1-0.869l1.604-3.863
		c-3.396-1.271-7.036-2.043-10.832-2.222v9.049h-4.546v-8.97c-3.466,0.272-6.792,1.035-9.91,2.225l1.6,3.869l-2.1,0.869
		l-1.596-3.859c-3.394,1.55-6.508,3.606-9.234,6.086l6.401,6.396l-3.213,3.218l-6.343-6.343c-2.195,2.573-4.029,5.459-5.431,8.583
		l3.859,1.598l-0.869,2.1l-3.858-1.597c-1.142,3.055-1.872,6.308-2.138,9.693h8.965v4.541h-9.044
		c0.182,3.876,0.985,7.588,2.304,11.046l3.859-1.598l0.869,2.1l-3.85,1.594c1.389,3.042,3.189,5.854,5.333,8.369l6.344-6.34
		l3.213,3.213l-6.402,6.397c2.782,2.531,5.968,4.622,9.444,6.183l1.602-3.859l2.1,0.869l-1.602,3.859
		c3.056,1.145,6.311,1.875,9.698,2.142v-8.97h4.546v9.049c3.875-0.183,7.585-0.985,11.042-2.305l-1.604-3.863l2.1-0.879l1.596,3.864
		c3.045-1.391,5.859-3.192,8.375-5.339L62.9,66.919l3.213-3.223l6.395,6.404c2.529-2.782,4.618-5.969,6.178-9.444L74.824,59.058z
		 M45.454,67.046c-11.924,0-21.592-9.668-21.592-21.592s9.668-21.592,21.592-21.592s21.587,9.668,21.587,21.592
		S57.378,67.046,45.454,67.046z"></path><path fill="none" d="M45.454,26.138c-10.669,0-19.316,8.647-19.316,19.316c0,10.664,8.647,19.316,19.316,19.316
		s19.321-8.652,19.321-19.316C64.775,34.785,56.123,26.138,45.454,26.138z M45.454,57.954c-6.904,0-12.5-5.596-12.5-12.5
		s5.596-12.5,12.5-12.5s12.5,5.596,12.5,12.5S52.358,57.954,45.454,57.954z"></path><path fill="#010101" d="M47.729,19.316v-9.049c-0.566-0.026-1.136-0.043-1.709-0.043c-0.956,0-1.9,0.049-2.837,0.122v8.97H47.729z"></path><path fill="#010101" d="M43.184,72.729v8.97c0.937,0.073,1.881,0.122,2.837,0.122c0.573,0,1.143-0.017,1.709-0.043v-9.049H43.184z"></path><path fill="#010101" d="M19.316,43.184h-8.965c-0.073,0.937-0.122,1.881-0.122,2.837c0,0.571,0.017,1.139,0.043,1.704h9.044V43.184
		z"></path><path fill="#010101" d="M72.725,47.725h9.049c0.026-0.565,0.043-1.133,0.043-1.704c0-0.956-0.049-1.9-0.122-2.837h-8.97V47.725z"></path><path fill="#010101" d="M28.345,25.933l-6.401-6.396c-1.122,1.021-2.171,2.117-3.155,3.271l6.343,6.343L28.345,25.933z"></path><path fill="#010101" d="M62.9,66.919l6.338,6.338c1.153-0.985,2.249-2.035,3.27-3.156l-6.395-6.404L62.9,66.919z"></path><path fill="#010101" d="M25.132,62.896l-6.344,6.34c0.617,0.723,1.254,1.426,1.925,2.098c0.4,0.4,0.811,0.791,1.229,1.173
		l6.402-6.397L25.132,62.896z"></path><path fill="#010101" d="M66.113,28.345l6.397-6.398c-1.021-1.123-2.117-2.173-3.271-3.158L62.9,25.132L66.113,28.345z"></path><path fill="#010101" d="M34.873,16.44l-1.6-3.869c-0.71,0.271-1.408,0.565-2.096,0.879l1.596,3.859L34.873,16.44z"></path><path fill="#010101" d="M57.168,75.61l1.604,3.863c0.709-0.271,1.405-0.564,2.092-0.878l-1.596-3.864L57.168,75.61z"></path><path fill="#010101" d="M17.217,32.988l-3.859-1.598c-0.31,0.69-0.602,1.388-0.869,2.1l3.858,1.597L17.217,32.988z"></path><path fill="#010101" d="M74.824,59.058l3.861,1.599c0.31-0.689,0.603-1.388,0.869-2.1l-3.861-1.599L74.824,59.058z"></path><path fill="#010101" d="M16.436,57.173l-3.859,1.598c0.271,0.71,0.565,1.408,0.879,2.096l3.85-1.594L16.436,57.173z"></path><path fill="#010101" d="M75.605,34.878l3.867-1.601c-0.271-0.71-0.565-1.408-0.879-2.096l-3.857,1.597L75.605,34.878z"></path><path fill="#010101" d="M32.988,74.829l-1.602,3.859c0.689,0.31,1.388,0.603,2.1,0.869l1.602-3.859L32.988,74.829z"></path><path fill="#010101" d="M59.058,17.222l1.604-3.864c-0.689-0.31-1.388-0.603-2.1-0.869l-1.604,3.863L59.058,17.222z"></path><circle fill="#010101" cx="45.454" cy="45.454" r="12.5"></circle><path fill="#010101" d="M78.408,78.081v-0.479c0-3.945,3.203-7.148,7.148-7.148h5.352V22.725h-5.352
		c-3.945,0-7.148-3.198-7.148-7.148v-0.474c0-3.945,3.203-7.148,7.148-7.148h4.102C87.5,3.262,82.773,0,77.275,0H13.638
		C6.104,0,0,6.104,0,13.638v63.633C0,84.8,6.104,90.913,13.638,90.913h63.638c4.561,0,8.584-2.246,11.055-5.684h-2.773
		C81.611,85.229,78.408,82.026,78.408,78.081z M48.999,2.271l-3.535,5.684l-3.535-5.684H48.999z M72.539,70.132l-3.213,3.213
		l-0.088-0.088c-2.516,2.146-5.33,3.948-8.375,5.339l0.143,0.345l-2.095,0.869l-0.14-0.336c-3.457,1.319-7.167,2.122-11.042,2.305
		v0.043h-1.709h-2.837v-0.122c-3.387-0.267-6.642-0.997-9.698-2.142l-0.141,0.34l-2.1-0.869l0.141-0.34
		c-3.476-1.561-6.662-3.651-9.444-6.183l-0.028,0.028l-1.201-1.201l-2.012-2.012l0.086-0.086c-2.144-2.515-3.944-5.327-5.333-8.369
		l-0.35,0.145l-0.869-2.1l0.34-0.141c-1.319-3.458-2.122-7.17-2.304-11.046h-0.043v-1.704v-2.837h0.122
		c0.266-3.385,0.996-6.638,2.138-9.693l-0.341-0.141l0.869-2.1l0.34,0.141c1.401-3.125,3.236-6.011,5.431-8.583l-0.087-0.087
		l3.213-3.213l0.03,0.03c2.726-2.48,5.84-4.536,9.234-6.086l-0.143-0.345l2.1-0.869l0.139,0.335c3.118-1.189,6.444-1.952,9.91-2.225
		v-0.122h2.837h1.709v0.043c3.796,0.179,7.436,0.95,10.832,2.222l0.14-0.336l2.1,0.869l-0.14,0.335
		c3.123,1.402,6.007,3.236,8.578,5.431l0.087-0.087l3.213,3.218l-0.028,0.028c2.479,2.726,4.534,5.841,6.083,9.235l0.342-0.142
		l0.869,2.1l-0.332,0.138c1.188,3.117,1.949,6.442,2.222,9.906h0.122v2.837v1.704h-0.043c-0.178,3.795-0.949,7.435-2.219,10.832
		l0.338,0.14l-0.869,2.1l-0.338-0.14c-1.56,3.476-3.648,6.662-6.178,9.444L72.539,70.132z"></path><path fill="#010101" d="M43.184,10.225v0.122c0.937-0.073,1.881-0.122,2.837-0.122H43.184z"></path><path fill="#010101" d="M47.729,10.225h-1.709c0.573,0,1.143,0.017,1.709,0.043V10.225z"></path><path fill="#010101" d="M43.184,81.821h2.837c-0.956,0-1.9-0.049-2.837-0.122V81.821z"></path><path fill="#010101" d="M47.729,81.821v-0.043c-0.566,0.026-1.136,0.043-1.709,0.043H47.729z"></path><path fill="#010101" d="M10.229,43.184v2.837c0-0.956,0.049-1.9,0.122-2.837H10.229z"></path><path fill="#010101" d="M10.229,47.725h0.043c-0.026-0.565-0.043-1.133-0.043-1.704V47.725z"></path><path fill="#010101" d="M81.816,47.725v-1.704c0,0.571-0.017,1.139-0.043,1.704H81.816z"></path><path fill="#010101" d="M81.816,43.184h-0.122c0.073,0.937,0.122,1.881,0.122,2.837V43.184z"></path><path fill="#010101" d="M21.944,19.537l-0.03-0.03l-3.213,3.213l0.087,0.087C19.773,21.653,20.822,20.557,21.944,19.537z"></path><path fill="#010101" d="M69.238,73.257l0.088,0.088l3.213-3.213l-0.031-0.031C71.487,71.222,70.392,72.271,69.238,73.257z"></path><path fill="#010101" d="M18.701,69.321l2.012,2.012c-0.671-0.672-1.309-1.375-1.925-2.098L18.701,69.321z"></path><path fill="#010101" d="M21.914,72.534l0.028-0.028c-0.419-0.382-0.829-0.772-1.229-1.173L21.914,72.534z"></path><path fill="#010101" d="M72.511,21.947l0.028-0.028l-3.213-3.218l-0.087,0.087C70.394,19.774,71.49,20.824,72.511,21.947z"></path><path fill="#010101" d="M33.135,12.236l-2.1,0.869l0.143,0.345c0.688-0.314,1.386-0.608,2.096-0.879L33.135,12.236z"></path><path fill="#010101" d="M58.911,79.81l2.095-0.869l-0.143-0.345c-0.687,0.313-1.383,0.607-2.092,0.878L58.911,79.81z"></path><path fill="#010101" d="M13.018,31.25l-0.869,2.1l0.341,0.141c0.267-0.712,0.559-1.41,0.869-2.1L13.018,31.25z"></path><path fill="#010101" d="M79.023,60.796l0.869-2.1l-0.338-0.14c-0.267,0.712-0.56,1.41-0.869,2.1L79.023,60.796z"></path><path fill="#010101" d="M12.236,58.911l0.869,2.1l0.35-0.145c-0.314-0.688-0.608-1.386-0.879-2.096L12.236,58.911z"></path><path fill="#010101" d="M79.805,33.14l-0.869-2.1l-0.342,0.142c0.313,0.688,0.607,1.386,0.879,2.096L79.805,33.14z"></path><path fill="#010101" d="M31.245,79.028l2.1,0.869l0.141-0.34c-0.712-0.267-1.41-0.56-2.1-0.869L31.245,79.028z"></path><path fill="#010101" d="M60.801,13.022l-2.1-0.869l-0.14,0.336c0.712,0.266,1.41,0.559,2.1,0.869L60.801,13.022z"></path><path fill="#010101" d="M45.454,23.862c-11.924,0-21.592,9.668-21.592,21.592s9.668,21.592,21.592,21.592
		s21.587-9.668,21.587-21.592S57.378,23.862,45.454,23.862z M45.454,64.771c-10.669,0-19.316-8.652-19.316-19.316
		c0-10.669,8.647-19.316,19.316-19.316s19.321,8.647,19.321,19.316C64.775,56.118,56.123,64.771,45.454,64.771z"></path></g></svg>