<svg xmlns:dc="http://purl.org/dc/elements/1.1/" xmlns:cc="http://creativecommons.org/ns#" xmlns:rdf="http://www.w3.org/1999/02/22-rdf-syntax-ns#" xmlns:svg="http://www.w3.org/2000/svg" xmlns="http://www.w3.org/2000/svg" version="1.1" viewBox="0 0 300 300" xml:space="preserve" style="" x="0px" y="0px" fill-rule="evenodd"><defs><style type="text/css"></style></defs><rect width="122.625" height="24.525" rx="12.2625" ry="12.2625" x="15.000008" y="88.798409" style="color:#000000;enable-background:accumulate;" fill="#000000" fill-opacity="1" fill-rule="nonzero" stroke="none" marker="none" visibility="visible" display="inline" overflow="visible"></rect><path d="m 112.86374,27.462329 c -13.37411,0 -24.31303,10.931138 -24.31303,24.311474 l 0,24.800067 24.31303,0 0,-24.800067 105.03229,0 0,31.607717 c 0,5.850687 4.85794,10.697733 10.69773,10.697733 l 31.60694,0 0,154.143827 -147.33696,0 0,-49.11154 -24.31303,0 0,49.11154 c 0,13.38189 10.94203,24.31459 24.31303,24.31459 l 147.33696,0 c 13.37411,0 24.80085,-10.9327 24.79929,-24.31459 l 0,-159.493473 0,-4.86105 -3.89008,-3.890085 -48.62606,-49.113097 -3.89009,-3.403046 -5.34886,0 z" style="text-indent:0;text-transform:none;direction:ltr;block-progression:tb;baseline-shift:baseline;color:#000000;enable-background:accumulate;" fill="#000000" fill-opacity="1" fill-rule="nonzero" stroke="none" marker="none" visibility="visible" display="inline" overflow="visible"></path><rect width="98.098427" height="24.524651" rx="12.262325" ry="12.262325" x="39.524818" y="125.58742" style="color:#000000;enable-background:accumulate;" fill="#000000" fill-opacity="1" fill-rule="nonzero" stroke="none" marker="none" visibility="visible" display="inline" overflow="visible"></rect><rect width="73.573608" height="24.524651" rx="12.262325" ry="12.262325" x="64.049629" y="-186.90184" transform="scale(1,-1)" style="color:#000000;enable-background:accumulate;" fill="#000000" fill-opacity="1" fill-rule="nonzero" stroke="none" marker="none" visibility="visible" display="inline" overflow="visible"></rect></svg>