<svg xmlns="http://www.w3.org/2000/svg" xmlns:xlink="http://www.w3.org/1999/xlink" xmlns:sketch="http://www.bohemiancoding.com/sketch/ns" viewBox="0 0 68 60" version="1.1" x="0px" y="0px"><title>filter</title><desc>Created with Sketch.</desc><g stroke="none" stroke-width="1" fill="none" fill-rule="evenodd" sketch:type="MSPage"><g sketch:type="MSLayerGroup" transform="translate(-14.000000, -18.000000)"><rect sketch:type="MSShapeGroup" x="0" y="0" width="96" height="96"></rect><path d="M14,22 L48,22 L48,28 L14,28 L14,22 Z M70,22 L82,22 L82,28 L70,28 L70,22 Z M14,44 L26,44 L26,50 L14,50 L14,44 Z M48,44 L82,44 L82,50 L48,50 L48,44 Z M70,68 L82,68 L82,74 L70,74 L70,68 Z M14,68 L48,68 L48,74 L14,74 L14,68 Z M59,78 C62.8659932,78 66,74.8659932 66,71 C66,67.1340068 62.8659932,64 59,64 C55.1340068,64 52,67.1340068 52,71 C52,74.8659932 55.1340068,78 59,78 Z M37,54 C40.8659932,54 44,50.8659932 44,47 C44,43.1340068 40.8659932,40 37,40 C33.1340068,40 30,43.1340068 30,47 C30,50.8659932 33.1340068,54 37,54 Z M59,32 C62.8659932,32 66,28.8659932 66,25 C66,21.1340068 62.8659932,18 59,18 C55.1340068,18 52,21.1340068 52,25 C52,28.8659932 55.1340068,32 59,32 Z" fill="#000000" sketch:type="MSShapeGroup"></path></g></g></svg>